<?xml version="1.0" encoding="UTF-8" standalone="no"?>
<!-- Generator: Adobe Illustrator 22.0.1, SVG Export Plug-In . SVG Version: 6.00 Build 0)  -->

<svg
   xmlns:dc="http://purl.org/dc/elements/1.1/"
   xmlns:cc="http://creativecommons.org/ns#"
   xmlns:rdf="http://www.w3.org/1999/02/22-rdf-syntax-ns#"
   xmlns:svg="http://www.w3.org/2000/svg"
   xmlns="http://www.w3.org/2000/svg"
   xmlns:sodipodi="http://sodipodi.sourceforge.net/DTD/sodipodi-0.dtd"
   xmlns:inkscape="http://www.inkscape.org/namespaces/inkscape"
   version="1.1"
   id="Layer_1"
   x="0px"
   y="0px"
   viewBox="0 0 64.000001 64"
   xml:space="preserve"
   width="512"
   height="512"
   sodipodi:docname="org.firestormviewer.FirestormViewer.svg"
   inkscape:version="0.92.4 5da689c313, 2019-01-14"><metadata
   id="metadata21"><rdf:RDF><cc:Work
       rdf:about=""><dc:format>image/svg+xml</dc:format><dc:type
         rdf:resource="http://purl.org/dc/dcmitype/StillImage" /><dc:title></dc:title></cc:Work></rdf:RDF></metadata><defs
   id="defs19" /><sodipodi:namedview
   pagecolor="#ffffff"
   bordercolor="#666666"
   borderopacity="1"
   objecttolerance="10"
   gridtolerance="10"
   guidetolerance="10"
   inkscape:pageopacity="0"
   inkscape:pageshadow="2"
   inkscape:window-width="1896"
   inkscape:window-height="927"
   id="namedview17"
   showgrid="false"
   inkscape:zoom="1.3037281"
   inkscape:cx="104.7761"
   inkscape:cy="267.77319"
   inkscape:window-x="664"
   inkscape:window-y="382"
   inkscape:window-maximized="0"
   inkscape:current-layer="Layer_1"
   fit-margin-top="0"
   fit-margin-left="0"
   fit-margin-right="0"
   fit-margin-bottom="0" />
<linearGradient
   id="SVGID_1__69444-3"
   gradientUnits="userSpaceOnUse"
   x1="31.4993"
   y1="6.9969001"
   x2="31.4993"
   y2="57"
   spreadMethod="reflect">
	<stop
   offset="0"
   style="stop-color:#ff351a;stop-opacity:1"
   id="stop2" />
	<stop
   offset="1"
   style="stop-color:#ff7022;stop-opacity:1"
   id="stop4" />
</linearGradient>
<ellipse
   style="opacity:1;fill:#161616;fill-opacity:1;stroke:none;stroke-width:0.14001973;stroke-opacity:1"
   id="path4899"
   cx="31.769312"
   cy="31.888304"
   rx="27.68652"
   ry="28.438736" /><path
   style="fill:#ed1c00;fill-opacity:1;stroke-width:1.16137779"
   d="M 50.264149,9.2623754 C 50.207193,5.4851728 49.022514,3.10518 48.965558,2.9986132 48.760517,2.5841866 48.339045,2.3473713 47.89479,2.3710529 47.450536,2.4065751 47.051846,2.7025942 46.90376,3.1407023 46.892369,3.1643838 46.436724,4.3958228 45.730473,6.0416885 41.549922,3.649855 36.822596,2.3710529 32.015533,2.3710529 c -6.219566,0 -12.268265,2.1550184 -17.189239,6.0387878 C 14.211172,6.858701 13.755526,5.1654723 13.789699,3.5788104 13.80109,3.152543 13.584659,2.7499572 13.220142,2.5249827 12.855625,2.3118491 12.411371,2.3236898 12.058245,2.5486642 10.907739,3.2709506 9.6433221,4.5615935 8.8459419,6.0061663 8.1282997,5.0115424 7.3081371,3.7564218 6.7727533,2.9157278 6.5563215,2.560505 6.1804137,2.3355306 5.7703325,2.3710529 5.3716423,2.3828936 5.0071257,2.6197088 4.8134762,2.9867724 c -1.0593766,2.02477 -2.1643178,6.3348068 0.2050406,9.6383786 -0.5809484,0.177612 -1.2074615,0.331542 -1.6744985,0.414427 -0.3986901,0.08288 -0.7176421,0.355223 -0.865727,0.734127 -0.1480849,0.390745 -0.091129,0.828853 0.1480849,1.148554 0.1708672,0.236815 1.2302438,1.645866 2.6883104,2.747056 -0.3531255,0.355223 -0.5581661,0.793331 -0.6037307,1.314324 -0.068347,0.722287 0.2506052,1.456414 0.7973802,2.178701 -1.3099817,3.43382 -1.9706683,7.068933 -1.9706683,10.810614 0,16.328409 12.7694742,29.601901 28.4778652,29.601901 15.70839,0 28.477865,-13.273492 28.477865,-29.601901 0,-8.809526 -3.724905,-17.062536 -10.229249,-22.7105786 z M 32.015533,4.739205 c 4.47672,0 8.862311,1.1959167 12.746692,3.4456612 -0.467037,1.0064646 -0.99103,2.0366108 -1.549196,2.9720308 -0.39869,-0.580197 -0.8999,-1.2314391 -1.606152,-1.5748211 -0.330343,-0.1539298 -0.717642,-0.1420891 -1.047985,0.047363 -0.318952,0.1894521 -0.535384,0.5328341 -0.569557,0.9235791 -0.125302,1.420891 -0.820162,3.019394 -1.378328,4.108745 l -0.09113,-0.106567 c -0.296169,-0.30786 -0.729033,-0.414427 -1.139114,-0.29602 -0.39869,0.130249 -0.69486,0.46179 -0.78599,0.888057 l -0.774597,3.860088 c -0.03417,0.05921 -0.113912,0.201293 -0.261997,0.284178 -0.239214,0.106567 -0.626513,0.05921 -1.104941,-0.130248 -0.20504,-0.09473 -0.421472,-0.213134 -0.660687,-0.343382 -0.136693,-0.07105 -0.29617,-0.15393 -0.455645,-0.236815 0,0 0,0 0,-0.01184 -0.01139,0 -0.01139,0 -0.01139,0 -0.854336,-0.438108 -1.993451,-0.911738 -3.656558,-0.805171 -1.788411,0.118407 -3.542646,1.290642 -4.510894,2.048451 C 22.708967,17.870608 18.027206,14.01052 17.036176,12.60147 16.68305,12.080476 16.250187,11.381872 15.828715,10.588541 20.430737,6.8231787 26.137702,4.739205 32.015533,4.739205 Z M 7.6156981,13.998679 C 7.9004767,13.785546 8.0827351,13.442164 8.0941262,13.075101 8.1055174,12.708036 7.9574325,12.352814 7.684045,12.115999 5.6222475,10.316203 5.7019856,7.8414841 6.1120668,6.1127331 6.8752736,7.2494461 7.8321299,8.5756113 8.470034,9.17949 8.7889862,9.4636683 9.2332408,9.5583944 9.631931,9.4044645 10.01923,9.2505346 10.304009,8.883471 10.360964,8.4453629 c 0.102521,-0.7459678 0.626513,-1.7050695 1.355547,-2.5339227 0.546774,3.0312347 2.09597,6.0979918 3.4743,8.0753988 1.492239,2.143177 8.509185,7.649131 9.306566,8.276691 0.432863,0.343382 1.047985,0.30786 1.446675,-0.07105 0.580948,-0.544675 2.392141,-1.965567 3.861599,-2.060293 1.139114,-0.07105 1.89093,0.236816 2.574399,0.603879 0.193649,0.130248 0.751815,0.61572 0.774597,1.787955 l 0.02278,1.160395 h 1.116333 c 2.061798,0 2.278229,0.355222 2.278229,1.184076 0,0.651241 0.512602,1.184076 1.139115,1.184076 0.626513,0 1.139115,-0.532835 1.139115,-1.184076 0,-2.226063 -1.298591,-3.043076 -2.563009,-3.362776 0.09113,-0.03552 0.205041,-0.05921 0.29617,-0.106567 1.070768,-0.556516 1.38972,-1.622184 1.446676,-1.823477 l 0.387299,-1.906363 c 0.170867,0.08288 0.353125,0.106567 0.546775,0.09473 0.341734,-0.03552 0.649295,-0.236815 0.831554,-0.520994 0.06835,-0.106567 1.253026,-1.965566 1.959277,-4.144266 0.410081,0.568356 0.8999,1.10119 1.640325,1.113032 0.353125,-0.02368 0.729034,-0.189453 0.945465,-0.509153 1.332764,-1.977407 2.58579,-4.6297375 3.462908,-6.6663483 0.159476,0.9827831 0.250605,2.1786999 0.159476,3.5403873 -0.159476,2.569445 -1.00242,4.250833 -1.00242,4.262674 -0.148086,0.284178 -0.182259,0.62756 -0.07974,0.93542 0.10252,0.3197 0.330343,0.568357 0.615122,0.698605 0.07974,0.03552 0.387299,0.177612 0.820162,0.272337 -0.820162,1.148554 -2.152927,2.569446 -3.383171,3.670636 -0.296169,0.284178 -0.444254,0.710446 -0.364516,1.124872 0.06835,0.414427 0.353125,0.757809 0.740424,0.888057 0.273388,0.106567 0.569557,0.224974 0.831554,0.343382 -1.78841,1.764274 -4.898193,4.025859 -7.130858,4.66526 -0.182257,0.04736 -0.683468,0.118407 -1.173287,0.177611 -2.836396,0.367063 -8.099105,1.053828 -8.099105,4.996801 0,2.80626 3.485691,4.132426 6.435997,4.759986 l -1.253026,0.651242 c -0.318952,0.16577 -0.546775,0.47363 -0.603731,0.840694 -0.06835,0.367063 0.03417,0.745968 0.284779,1.018304 0.06835,0.08288 1.298591,1.432733 2.745266,2.936509 -1.833974,-0.414426 -3.861598,-1.71691 -4.647587,-2.320789 -0.330343,-0.248655 -0.751815,-0.30786 -1.116332,-0.142089 -0.375909,0.15393 -0.637905,0.509153 -0.694861,0.92358 l -0.820162,5.944062 C 29.065222,46.039774 27.869152,44.287342 27.424897,42.357298 27.310986,41.836304 26.878122,41.46924 26.365521,41.445559 h -0.04556 c -0.489818,0 -0.934074,0.331541 -1.082158,0.817013 -0.410082,1.314324 -1.366938,2.841783 -2.278229,4.108744 0.02278,-1.859 0.02278,-3.990337 -0.05696,-5.020483 -0.03417,-0.438108 -0.29617,-0.805171 -0.672078,-0.982783 -0.375908,-0.177612 -0.820163,-0.130248 -1.150506,0.130248 -0.763207,0.592039 -2.027624,1.077509 -3.246477,1.444573 l 2.540226,-3.315412 c 0.20504,-0.248657 0.284779,-0.580198 0.239214,-0.911739 -0.04557,-0.331541 -0.227823,-0.61572 -0.489819,-0.805172 -0.04556,-0.02369 -0.59234,-0.414426 -1.560587,-0.94726 2.278229,-0.61572 4.920975,-1.610345 5.388012,-3.019395 0.216432,-0.62756 0.06835,-1.278802 -0.39869,-1.787955 -1.59476,-1.740591 -5.855049,-3.670635 -8.953441,-4.037699 -1.047985,-0.130248 -2.027624,-0.30786 -2.836395,-0.47363 0.467037,-0.331541 0.865727,-0.568357 1.104941,-0.61572 0.50121,-0.09473 0.877118,-0.544674 0.922683,-1.077509 0.03417,-0.532834 -0.273388,-1.030146 -0.763207,-1.195916 C 11.534252,23.210791 7.3878752,20.451894 7.0005762,19.291499 7.13727,19.208614 7.4790044,19.054684 8.2536023,18.936277 8.8003773,18.853391 9.2104585,18.379761 9.2332408,17.799563 9.244632,17.219367 8.8687241,16.722054 8.3219492,16.603647 7.4220486,16.414195 6.4424101,15.644545 5.6792033,14.886737 6.3740632,14.673603 7.1030966,14.365743 7.6156981,13.998679 Z M 32.015533,59.206702 c -14.443974,0 -26.199636,-12.219664 -26.199636,-27.233748 0,-3.114121 0.5012105,-6.145355 1.480849,-9.0345 0.9568563,0.757809 2.0048417,1.432732 2.904742,1.953725 -0.7745977,0.568356 -1.4466753,1.184076 -1.7428451,1.468255 -0.2961697,0.296019 -0.4328636,0.734127 -0.3303432,1.148553 0.091129,0.414427 0.3872989,0.745968 0.7859891,0.864376 0.091129,0.02368 2.4263142,0.734127 5.4221852,1.10119 2.517443,0.296019 5.6614,1.728751 7.119467,2.900986 -1.207462,0.710446 -4.476721,1.645866 -6.686604,1.977407 -0.5126,0.07105 -0.911291,0.497313 -0.968247,1.030147 -0.06835,0.544675 0.227823,1.053828 0.717643,1.24328 1.378328,0.568356 2.506052,1.148553 3.257867,1.586661 l -3.736296,4.866553 c -0.296169,0.378904 -0.330343,0.899898 -0.10252,1.326165 0.239214,0.414427 0.69486,0.651242 1.161897,0.580197 0.39869,-0.0592 3.269259,-0.532834 5.593052,-1.574821 0.02278,2.557605 -0.06835,6.240081 -0.06835,6.287444 -0.01139,0.497312 0.273387,0.947261 0.706252,1.136713 0.136693,0.05921 0.284778,0.08288 0.432863,0.08288 0.307561,0 0.615122,-0.130248 0.831554,-0.378904 0.113911,-0.118407 2.152926,-2.403674 3.610992,-4.937597 1.492241,2.912827 3.816035,4.937597 3.941337,5.044164 0.318952,0.272337 0.751815,0.343382 1.139115,0.189453 0.387299,-0.153931 0.660687,-0.509153 0.717642,-0.935421 l 0.88851,-6.453214 c 1.879539,1.148554 5.069059,2.604966 7.56372,1.444573 0.341735,-0.153931 0.59234,-0.497312 0.660687,-0.888058 0.05696,-0.390745 -0.07974,-0.79333 -0.353126,-1.065668 -1.207461,-1.148554 -2.540225,-2.557604 -3.440126,-3.516706 l 3.17813,-1.657707 c 0.455646,-0.236815 0.706251,-0.757808 0.603731,-1.290642 C 41.003144,35.951444 40.581671,35.5607 40.06907,35.525177 36.253035,35.26468 32.015529,34.00956 32.015529,32.61235 c 0,-1.859 4.27168,-2.403675 6.094263,-2.64049 0.672078,-0.09473 1.161897,-0.15393 1.503631,-0.248655 3.314824,-0.947261 7.609286,-4.404764 9.23822,-6.476896 0.364517,-0.473631 0.330343,-1.148554 -0.07974,-1.586662 -0.250605,-0.248657 -0.626513,-0.497312 -1.025204,-0.710446 1.423894,-1.444573 3.394562,-3.717999 3.622385,-5.387546 0.05696,-0.47363 -0.148084,-0.92358 -0.535384,-1.172235 -0.375908,-0.248656 -0.865726,-0.236815 -1.241635,0.03552 -0.01139,0 -0.02278,0.01184 -0.03417,0.02368 0.182259,-0.592039 0.364516,-1.338006 0.501211,-2.202382 5.205753,5.12705 8.15606,12.207824 8.15606,19.726707 0,15.014085 -11.755663,27.233749 -26.199636,27.233749 z"
   id="path7"
   inkscape:connector-curvature="0" />
<linearGradient
   id="SVGID_2__69444"
   gradientUnits="userSpaceOnUse"
   x1="27.594999"
   y1="9.9899998"
   x2="27.594999"
   y2="44.880001"
   spreadMethod="reflect">
	<stop
   offset="0"
   style="stop-color:#6DC7FF"
   id="stop9" />
	<stop
   offset="1"
   style="stop-color:#E6ABFF"
   id="stop11" />
</linearGradient>
<path
   style="fill:#ffffff;fill-opacity:1;stroke-width:1.16137779"
   d="m 44.933092,20.416372 c -0.296169,0.284177 -0.444254,0.710445 -0.364516,1.124871 0.06835,0.414427 0.353125,0.75781 0.740424,0.888058 0.273388,0.106567 0.569557,0.224974 0.831554,0.343382 -1.78841,1.764274 -4.898193,4.025859 -7.130858,4.66526 -0.182258,0.04736 -0.683468,0.118407 -1.173288,0.177611 -2.836395,0.367063 -8.099105,1.053828 -8.099105,4.996801 0,2.80626 3.485691,4.132426 6.435998,4.759986 l -1.253026,0.651242 c -0.318952,0.16577 -0.546775,0.47363 -0.603731,0.840694 -0.06835,0.367063 0.03417,0.745968 0.284779,1.018304 0.06835,0.08288 1.298591,1.432733 2.745266,2.936509 -1.833974,-0.414426 -3.861599,-1.71691 -4.647587,-2.320789 -0.330343,-0.248655 -0.751816,-0.30786 -1.116333,-0.142089 -0.375908,0.15393 -0.637904,0.509152 -0.69486,0.923579 l -0.820163,5.944062 c -1.00242,-1.184076 -2.198491,-2.936508 -2.642745,-4.866552 -0.113911,-0.520994 -0.546775,-0.888058 -1.059377,-0.911739 h -0.04556 c -0.489819,0 -0.934074,0.331541 -1.082158,0.817013 -0.410082,1.314324 -1.366938,2.841782 -2.27823,4.108743 0.02278,-1.858999 0.02278,-3.990336 -0.05696,-5.020482 -0.03417,-0.438108 -0.29617,-0.805172 -0.672078,-0.982783 -0.375907,-0.177612 -0.820162,-0.130248 -1.150505,0.130248 -0.763207,0.592039 -2.027624,1.077509 -3.246477,1.444573 l 2.540225,-3.315413 c 0.205041,-0.248656 0.284779,-0.580197 0.239215,-0.911738 -0.04557,-0.331541 -0.227824,-0.61572 -0.48982,-0.805172 -0.04556,-0.02369 -0.592339,-0.414427 -1.560587,-0.947261 2.27823,-0.61572 4.920975,-1.610344 5.388013,-3.019394 0.216431,-0.62756 0.06835,-1.278802 -0.398691,-1.787955 -1.59476,-1.740591 -5.855048,-3.670636 -8.95344,-4.037699 -1.047986,-0.130248 -2.027625,-0.30786 -2.836395,-0.473631 0.467036,-0.331541 0.865726,-0.568356 1.10494,-0.615719 0.501211,-0.09473 0.877119,-0.544674 0.922683,-1.077509 0.03417,-0.532834 -0.273388,-1.030146 -0.763206,-1.195917 C 11.534252,23.210791 7.3878752,20.451894 7.0005762,19.291499 7.13727,19.208614 7.4790044,19.054684 8.2536023,18.936277 8.8003773,18.853391 9.2104585,18.379761 9.2332408,17.799563 9.244632,17.219367 8.8687241,16.722054 8.3219492,16.603647 7.4220486,16.414195 6.4424101,15.644545 5.6792033,14.886737 6.3740632,14.673603 7.1030966,14.365743 7.6156981,13.998679 7.9004767,13.785546 8.0827351,13.442164 8.0941262,13.075101 8.1055174,12.708036 7.9574325,12.352814 7.684045,12.115999 5.6222475,10.316203 5.7019856,7.8414841 6.1120668,6.1127331 6.8752736,7.2494461 7.8321299,8.5756113 8.470034,9.17949 8.7889862,9.4636683 9.2332408,9.5583944 9.631931,9.4044645 10.01923,9.2505346 10.304009,8.883471 10.360964,8.4453629 c 0.102521,-0.7459678 0.626513,-1.7050695 1.355547,-2.5339227 0.546774,3.0312347 2.09597,6.0979918 3.4743,8.0753988 1.492239,2.143177 8.509185,7.649131 9.306566,8.276691 0.432863,0.343382 1.047985,0.30786 1.446675,-0.07105 0.580948,-0.544675 2.392141,-1.965567 3.861599,-2.060293 1.139114,-0.07105 1.89093,0.236816 2.574399,0.603879 0.193649,0.130248 0.751815,0.61572 0.774597,1.787955 l 0.02278,1.160395 h 1.116333 c 2.061798,0 2.278229,0.355222 2.278229,1.184076 0,0.651241 0.512602,1.184076 1.139115,1.184076 0.626513,0 1.139115,-0.532835 1.139115,-1.184076 0,-2.226063 -1.298591,-3.043076 -2.563009,-3.362776 0.09113,-0.03552 0.205041,-0.05921 0.29617,-0.106567 1.070768,-0.556516 1.38972,-1.622184 1.446676,-1.823477 l 0.387299,-1.906363 c 0.170867,0.08288 0.353125,0.106567 0.546775,0.09473 0.341734,-0.03552 0.649295,-0.236815 0.831554,-0.520994 0.06835,-0.106567 1.253026,-1.965566 1.959277,-4.144266 0.410081,0.568356 0.8999,1.10119 1.640325,1.113032 0.353125,-0.02368 0.729034,-0.189453 0.945465,-0.509153 1.332764,-1.977407 2.58579,-4.6297375 3.462908,-6.6663483 0.159476,0.9827831 0.250605,2.1786999 0.159476,3.5403873 -0.159476,2.569445 -1.00242,4.250833 -1.00242,4.262674 -0.148086,0.284178 -0.182259,0.62756 -0.07974,0.93542 0.10252,0.3197 0.330343,0.568357 0.615122,0.698605 0.07974,0.03552 0.387299,0.177612 0.820162,0.272337 -0.820162,1.148554 -2.152927,2.569446 -3.383171,3.670636 z"
   id="path14"
   inkscape:connector-curvature="0" />
</svg>