<?xml version="1.0" encoding="UTF-8" standalone="no"?>
<!-- Generator: Adobe Illustrator 22.0.1, SVG Export Plug-In . SVG Version: 6.00 Build 0)  -->

<svg
   xmlns:dc="http://purl.org/dc/elements/1.1/"
   xmlns:cc="http://creativecommons.org/ns#"
   xmlns:rdf="http://www.w3.org/1999/02/22-rdf-syntax-ns#"
   xmlns:svg="http://www.w3.org/2000/svg"
   xmlns="http://www.w3.org/2000/svg"
   xmlns:sodipodi="http://sodipodi.sourceforge.net/DTD/sodipodi-0.dtd"
   xmlns:inkscape="http://www.inkscape.org/namespaces/inkscape"
   version="1.1"
   id="Layer_1"
   x="0px"
   y="0px"
   viewBox="0 0 64.000001 64"
   xml:space="preserve"
   width="512"
   height="512"
   sodipodi:docname="org.firestormviewer.FirestormViewer.svg"
   inkscape:version="0.92.4 5da689c313, 2019-01-14"><metadata
   id="metadata21"><rdf:RDF><cc:Work
       rdf:about=""><dc:format>image/svg+xml</dc:format><dc:type
         rdf:resource="http://purl.org/dc/dcmitype/StillImage" /><dc:title></dc:title></cc:Work></rdf:RDF></metadata><defs
   id="defs19" /><sodipodi:namedview
   pagecolor="#ffffff"
   bordercolor="#666666"
   borderopacity="1"
   objecttolerance="10"
   gridtolerance="10"
   guidetolerance="10"
   inkscape:pageopacity="0"
   inkscape:pageshadow="2"
   inkscape:window-width="1896"
   inkscape:window-height="927"
   id="namedview17"
   showgrid="false"
   inkscape:zoom="0.921875"
   inkscape:cx="222.34304"
   inkscape:cy="252.22642"
   inkscape:window-x="607"
   inkscape:window-y="268"
   inkscape:window-maximized="0"
   inkscape:current-layer="Layer_1"
   fit-margin-top="0"
   fit-margin-left="0"
   fit-margin-right="0"
   fit-margin-bottom="0" />
<linearGradient
   id="SVGID_1__69444-3"
   gradientUnits="userSpaceOnUse"
   x1="31.4993"
   y1="6.9969001"
   x2="31.4993"
   y2="57"
   spreadMethod="reflect">
	<stop
   offset="0"
   style="stop-color:#ff351a;stop-opacity:1"
   id="stop2" />
	<stop
   offset="1"
   style="stop-color:#ff7022;stop-opacity:1"
   id="stop4" />
</linearGradient>
<ellipse
   style="opacity:1;fill:#161616;fill-opacity:1;stroke:none;stroke-width:0.14099671;stroke-opacity:1"
   id="path4899"
   cx="31.93063"
   cy="31.888304"
   rx="28.07423"
   ry="28.438736" /><path
   style="fill:#ed1c00;fill-opacity:1;stroke-width:1.16948128"
   d="M 50.684467,9.2623759 C 50.626713,5.485173 49.425445,3.1051801 49.367691,2.9986132 49.159779,2.5841866 48.732405,2.3473713 48.281928,2.3710529 47.831453,2.4065751 47.42718,2.7025942 47.27702,3.1407024 47.26547,3.1643839 46.803444,4.395823 46.087303,6.0416888 41.848208,3.6498551 37.054683,2.3710529 32.180303,2.3710529 25.87364,2.3710529 19.740237,4.5260715 14.75035,8.4098411 14.126614,6.8587013 13.664588,5.1654725 13.699239,3.5788105 13.71079,3.1525431 13.491328,2.7499572 13.121706,2.5249827 12.752085,2.3118491 12.30161,2.3236898 11.943539,2.5486642 10.776921,3.2709507 9.4947979,4.5615937 8.6862514,6.0061666 7.9585596,5.0115426 7.1269117,3.7564219 6.5840305,2.9157278 6.3645679,2.560505 5.9833959,2.3355306 5.5675721,2.3710529 5.1632987,2.3828936 4.7936776,2.6197088 4.5973163,2.9867724 3.5231045,5.0115426 2.4026899,9.3215797 4.8052282,12.625152 c -0.5890839,0.177612 -1.2243704,0.331542 -1.6979477,0.414427 -0.4042732,0.08288 -0.7276918,0.355223 -0.8778504,0.734127 -0.1501587,0.390745 -0.092405,0.828853 0.1501586,1.148554 0.1732599,0.236815 1.2474718,1.645866 2.7259567,2.747056 -0.3580705,0.355223 -0.5659824,0.793331 -0.6121851,1.314324 -0.069304,0.722287 0.2541146,1.456414 0.8085465,2.178701 -1.3283264,3.433821 -1.9982651,7.068934 -1.9982651,10.810615 0,16.32841 12.9482953,29.601903 28.8766613,29.601903 15.928366,0 28.876661,-13.273493 28.876661,-29.601903 0,-8.809526 -3.777068,-17.062537 -10.372497,-22.7105801 z M 32.180303,4.7392052 c 4.539411,0 8.986416,1.1959168 12.925193,3.4456614 -0.473577,1.0064647 -1.004908,2.0366114 -1.57089,2.9720314 C 43.130333,10.576701 42.622104,9.9254585 41.905961,9.5820764 41.570992,9.4281466 41.178269,9.4399873 40.8433,9.6294394 c -0.323418,0.1894522 -0.542881,0.5328346 -0.577532,0.9235796 -0.127057,1.420891 -0.831648,3.019394 -1.39763,4.108745 l -0.09241,-0.106567 c -0.300317,-0.30786 -0.739242,-0.414427 -1.155066,-0.29602 -0.404273,0.130249 -0.70459,0.46179 -0.796997,0.888057 l -0.785444,3.860088 c -0.03465,0.05921 -0.115507,0.201293 -0.265666,0.284178 -0.242563,0.106567 -0.635286,0.05921 -1.120414,-0.130248 -0.207911,-0.09473 -0.427374,-0.213134 -0.669939,-0.343382 -0.138607,-0.07105 -0.300317,-0.15393 -0.462025,-0.236815 0,0 0,0 0,-0.01184 -0.01155,0 -0.01155,0 -0.01155,0 C 32.642326,18.131107 31.48726,17.657477 29.800863,17.764044 27.987408,17.882451 26.208607,19.054686 25.2268,19.812495 22.74341,17.870609 17.996088,14.010521 16.99118,12.601471 16.633109,12.080477 16.194184,11.381873 15.76681,10.588542 20.433277,6.823179 26.220161,4.7392052 32.180303,4.7392052 Z M 7.4387797,13.99868 C 7.7275462,13.785547 7.912357,13.442165 7.9239076,13.075102 7.9354583,12.708037 7.7852996,12.352815 7.5080837,12.116 5.4174134,10.316204 5.4982681,7.8414845 5.9140919,6.1127334 6.6879865,7.2494465 7.6582423,8.5756118 8.3050795,9.1794905 8.6284981,9.4636688 9.078974,9.5583949 9.4832473,9.404465 9.87597,9.2505351 10.164737,8.8834715 10.22249,8.4453634 c 0.103956,-0.7459679 0.635286,-1.7050697 1.374529,-2.5339229 0.554431,3.0312349 2.125321,6.0979925 3.522953,8.0753995 1.513137,2.143177 8.628345,7.649131 9.436893,8.276691 0.438925,0.343383 1.062661,0.30786 1.466934,-0.07105 0.589083,-0.544675 2.42564,-1.965567 3.915675,-2.060293 1.155066,-0.07105 1.91741,0.236816 2.61045,0.603879 0.196361,0.130248 0.762344,0.61572 0.785445,1.787955 l 0.0231,1.160396 h 1.131966 c 2.090671,0 2.310132,0.355222 2.310132,1.184076 0,0.651241 0.519781,1.184076 1.155067,1.184076 0.635287,0 1.155067,-0.532835 1.155067,-1.184076 0,-2.226063 -1.316776,-3.043077 -2.598901,-3.362777 0.09241,-0.03552 0.207913,-0.05921 0.300318,-0.106567 1.085763,-0.556516 1.409181,-1.622184 1.466935,-1.823477 l 0.392722,-1.906363 c 0.17326,0.08288 0.35807,0.106567 0.554432,0.09473 0.346519,-0.03552 0.658387,-0.236815 0.843199,-0.520994 0.06931,-0.106567 1.270573,-1.965566 1.986715,-4.144266 0.415823,0.568356 0.912502,1.10119 1.663295,1.113032 0.35807,-0.02368 0.739243,-0.189453 0.958705,-0.509153 1.351428,-1.977407 2.622,-4.629738 3.511401,-6.666349 0.161709,0.9827832 0.254115,2.1787001 0.161709,3.540388 -0.161709,2.569445 -1.016457,4.250833 -1.016457,4.262674 -0.15016,0.284178 -0.184811,0.62756 -0.08086,0.93542 0.103956,0.3197 0.334969,0.568357 0.623736,0.698605 0.08086,0.03552 0.392723,0.177612 0.831647,0.272337 -0.831647,1.148554 -2.183075,2.569446 -3.430547,3.670636 -0.300317,0.284178 -0.450475,0.710446 -0.369621,1.124872 0.06931,0.414427 0.35807,0.757809 0.750793,0.888057 0.277216,0.106567 0.577533,0.224975 0.843199,0.343383 -1.813454,1.764274 -4.966787,4.025859 -7.230717,4.66526 -0.184809,0.04736 -0.693039,0.118407 -1.189717,0.177611 -2.876116,0.367063 -8.212523,1.053828 -8.212523,4.996801 0,2.80626 3.534504,4.132427 6.526125,4.759987 l -1.270573,0.651242 c -0.323418,0.16577 -0.554431,0.47363 -0.612185,0.840694 -0.06931,0.367063 0.03465,0.745968 0.288767,1.018304 0.06931,0.08288 1.316776,1.432733 2.78371,2.936509 -1.859657,-0.414426 -3.915675,-1.71691 -4.712671,-2.320789 -0.334969,-0.248655 -0.762344,-0.30786 -1.131965,-0.142089 -0.381173,0.15393 -0.646838,0.509153 -0.704592,0.92358 l -0.831647,5.944062 C 29.188677,46.039777 27.975857,44.287345 27.525381,42.357301 27.409875,41.836307 26.970949,41.469243 26.45117,41.445562 h -0.0462 c -0.496677,0 -0.947154,0.331541 -1.097312,0.817013 -0.415825,1.314324 -1.386081,2.841783 -2.310133,4.108744 0.0231,-1.859 0.0231,-3.990337 -0.05776,-5.020483 -0.03465,-0.438108 -0.300318,-0.805171 -0.68149,-0.982783 -0.381172,-0.177612 -0.831648,-0.130248 -1.166617,0.130248 -0.773895,0.592039 -2.056018,1.077509 -3.291939,1.444573 l 2.575798,-3.315412 c 0.207911,-0.248657 0.288767,-0.580198 0.242564,-0.911739 -0.04621,-0.331541 -0.231013,-0.61572 -0.496678,-0.805172 -0.0462,-0.02369 -0.600635,-0.414426 -1.582441,-0.947261 2.310132,-0.61572 4.989886,-1.610345 5.463463,-3.019395 0.219463,-0.62756 0.06931,-1.278802 -0.404273,-1.787955 -1.617092,-1.740591 -5.93704,-3.670635 -9.078822,-4.037699 -1.062661,-0.130248 -2.056018,-0.30786 -2.876115,-0.47363 0.473577,-0.331541 0.87785,-0.568357 1.120414,-0.61572 0.508229,-0.09473 0.889401,-0.544674 0.935604,-1.077509 0.03465,-0.532834 -0.277216,-1.030146 -0.773894,-1.195916 C 11.412208,23.210793 7.2077664,20.451895 6.8150437,19.2915 6.9536518,19.208615 7.3001718,19.054685 8.0856169,18.936278 8.6400487,18.853392 9.0558727,18.379762 9.078974,17.799564 9.0905247,17.219368 8.7093526,16.722055 8.1549209,16.603648 7.2424184,16.414196 6.2490613,15.644546 5.4751668,14.886738 6.1797573,14.673604 6.9189998,14.365744 7.4387797,13.99868 Z M 32.180303,59.206706 c -14.646243,0 -26.5665283,-12.219665 -26.5665283,-27.23375 0,-3.114121 0.5082292,-6.145355 1.5015864,-9.0345 0.9702558,0.757809 2.0329169,1.432732 2.9454189,1.953725 -0.7854447,0.568356 -1.4669339,1.184076 -1.7672512,1.468255 -0.3003171,0.296019 -0.4389253,0.734127 -0.3349692,1.148553 0.092405,0.414427 0.3927225,0.745968 0.7969958,0.864376 0.092405,0.02368 2.4602916,0.734127 5.4981156,1.10119 2.552697,0.296019 5.740681,1.728751 7.219166,2.900986 -1.224371,0.710446 -4.539411,1.645866 -6.780241,1.977407 -0.519779,0.07105 -0.924053,0.497313 -0.981806,1.030147 -0.06931,0.544675 0.231013,1.053829 0.727692,1.243281 1.397631,0.568356 2.541147,1.148553 3.30349,1.586661 l -3.788618,4.866553 c -0.300317,0.378904 -0.334969,0.899898 -0.103956,1.326165 0.242564,0.414427 0.70459,0.651242 1.178168,0.580197 0.404273,-0.0592 3.315041,-0.532834 5.671376,-1.574821 0.0231,2.557605 -0.06931,6.240082 -0.06931,6.287445 -0.01155,0.497312 0.277216,0.947261 0.716143,1.136713 0.138607,0.05921 0.288765,0.08288 0.438924,0.08288 0.311868,0 0.623736,-0.130248 0.843199,-0.378904 0.115506,-0.118407 2.183076,-2.403675 3.66156,-4.937598 1.513138,2.912827 3.869473,4.937598 3.99653,5.044165 0.323418,0.272337 0.762343,0.343382 1.155066,0.189453 0.392723,-0.153931 0.669939,-0.509153 0.727692,-0.935421 L 33.0697,43.446649 c 1.905861,1.148554 5.140045,2.604966 7.669641,1.444573 0.34652,-0.153931 0.600635,-0.497312 0.669939,-0.888058 0.05776,-0.390745 -0.08086,-0.79333 -0.358071,-1.065668 -1.22437,-1.148554 -2.575798,-2.557604 -3.488301,-3.516706 l 3.222636,-1.657707 c 0.462026,-0.236815 0.716141,-0.757808 0.612185,-1.290642 -0.103955,-0.520995 -0.531331,-0.911739 -1.05111,-0.947262 -3.869473,-0.260497 -8.16632,-1.515617 -8.16632,-2.912827 0,-1.859 4.331499,-2.403675 6.179605,-2.64049 0.68149,-0.09473 1.178168,-0.15393 1.524687,-0.248655 3.361245,-0.947261 7.715845,-4.404764 9.36759,-6.476896 0.369621,-0.473631 0.334969,-1.148555 -0.08086,-1.586663 -0.254114,-0.248657 -0.635286,-0.497312 -1.03956,-0.710446 1.443833,-1.444573 3.442099,-3.717999 3.673112,-5.387546 0.05776,-0.47363 -0.150158,-0.92358 -0.542881,-1.172235 -0.381172,-0.248656 -0.877851,-0.236815 -1.259024,0.03552 -0.01155,0 -0.0231,0.01184 -0.03465,0.02368 0.184811,-0.592039 0.36962,-1.338006 0.50823,-2.202382 5.278653,5.12705 8.270275,12.207825 8.270275,19.726708 0,15.014086 -11.920286,27.233751 -26.566528,27.233751 z"
   id="path7"
   inkscape:connector-curvature="0" />
<linearGradient
   id="SVGID_2__69444"
   gradientUnits="userSpaceOnUse"
   x1="27.594999"
   y1="9.9899998"
   x2="27.594999"
   y2="44.880001"
   spreadMethod="reflect">
	<stop
   offset="0"
   style="stop-color:#6DC7FF"
   id="stop9" />
	<stop
   offset="1"
   style="stop-color:#E6ABFF"
   id="stop11" />
</linearGradient>
<path
   style="fill:#ffffff;fill-opacity:1;stroke-width:1.16948128"
   d="m 45.278751,20.416372 c -0.300317,0.284177 -0.450475,0.710445 -0.369621,1.124871 0.06931,0.414427 0.35807,0.75781 0.750793,0.888058 0.277216,0.106567 0.577533,0.224974 0.843199,0.343382 -1.813454,1.764274 -4.966786,4.025859 -7.230716,4.66526 -0.18481,0.04736 -0.693039,0.118407 -1.189718,0.177611 -2.876115,0.367063 -8.212522,1.053828 -8.212522,4.996801 0,2.80626 3.534503,4.132426 6.526125,4.759986 l -1.270573,0.651242 c -0.323418,0.16577 -0.554431,0.47363 -0.612185,0.840694 -0.06931,0.367063 0.03465,0.745968 0.288767,1.018304 0.06931,0.08288 1.316776,1.432733 2.78371,2.936509 -1.859657,-0.414426 -3.915676,-1.71691 -4.71267,-2.320789 -0.334969,-0.248655 -0.762345,-0.30786 -1.131966,-0.142089 -0.381172,0.15393 -0.646837,0.509152 -0.704591,0.923579 l -0.831648,5.944062 C 29.188678,46.039777 27.975857,44.287345 27.525382,42.357301 27.409876,41.836307 26.97095,41.469243 26.45117,41.445562 h -0.0462 c -0.496678,0 -0.947154,0.331541 -1.097312,0.817013 -0.415825,1.314324 -1.38608,2.841782 -2.310133,4.108743 0.0231,-1.858999 0.0231,-3.990336 -0.05776,-5.020482 -0.03465,-0.438108 -0.300318,-0.805172 -0.68149,-0.982783 -0.381171,-0.177612 -0.831647,-0.130248 -1.166616,0.130248 -0.773894,0.592039 -2.056018,1.077509 -3.291939,1.444573 l 2.575797,-3.315413 c 0.207912,-0.248656 0.288767,-0.580197 0.242565,-0.911738 -0.04621,-0.331541 -0.231014,-0.61572 -0.496679,-0.805172 -0.0462,-0.02369 -0.600634,-0.414427 -1.582441,-0.947261 2.310133,-0.61572 4.989886,-1.610344 5.463464,-3.019394 0.219462,-0.62756 0.06931,-1.278802 -0.404274,-1.787955 -1.617092,-1.740591 -5.937039,-3.670636 -9.07882,-4.037699 -1.062662,-0.130248 -2.056019,-0.30786 -2.876115,-0.473631 0.473576,-0.331541 0.877849,-0.568356 1.120413,-0.615719 0.50823,-0.09473 0.889402,-0.544674 0.935604,-1.077509 0.03465,-0.532834 -0.277216,-1.030146 -0.773893,-1.195917 -1.513138,-0.544675 -5.7175792,-3.303572 -6.1103018,-4.463967 0.138608,-0.08289 0.485128,-0.236815 1.270573,-0.355222 0.5544318,-0.08289 0.9702557,-0.556516 0.993357,-1.136714 C 9.0905239,17.219367 8.7093519,16.722054 8.1549202,16.603647 7.2424178,16.414195 6.2490608,15.644545 5.4751664,14.886737 6.1797568,14.673603 6.9189993,14.365743 7.4387791,13.998679 7.7275456,13.785546 7.9123563,13.442164 7.9239069,13.075101 7.9354576,12.708036 7.785299,12.352814 7.5080831,12.115999 5.417413,10.316203 5.4982677,7.8414841 5.9140915,6.1127331 6.687986,7.2494461 7.6582417,8.5756113 8.3050787,9.17949 8.6284974,9.4636683 9.0789732,9.5583944 9.4832465,9.4044645 9.875969,9.2505346 10.164736,8.883471 10.222489,8.4453629 c 0.103956,-0.7459678 0.635286,-1.7050695 1.374529,-2.5339227 0.554431,3.0312347 2.125321,6.0979918 3.522953,8.0753988 1.513136,2.143177 8.628344,7.649131 9.436891,8.276691 0.438925,0.343382 1.062661,0.30786 1.466934,-0.07105 0.589083,-0.544675 2.42564,-1.965567 3.915675,-2.060293 1.155066,-0.07105 1.91741,0.236816 2.61045,0.603879 0.196361,0.130248 0.762343,0.61572 0.785444,1.787955 l 0.0231,1.160395 h 1.131966 c 2.090671,0 2.310132,0.355222 2.310132,1.184076 0,0.651241 0.519781,1.184076 1.155067,1.184076 0.635286,0 1.155067,-0.532835 1.155067,-1.184076 0,-2.226063 -1.316776,-3.043076 -2.598901,-3.362776 0.09241,-0.03552 0.207913,-0.05921 0.300318,-0.106567 1.085762,-0.556516 1.409181,-1.622184 1.466935,-1.823477 l 0.392722,-1.906363 c 0.17326,0.08288 0.35807,0.106567 0.554432,0.09473 0.346519,-0.03552 0.658387,-0.236815 0.843199,-0.520994 0.06931,-0.106567 1.270573,-1.965566 1.986714,-4.144266 0.415823,0.568356 0.912501,1.10119 1.663295,1.113032 0.35807,-0.02368 0.739243,-0.189453 0.958705,-0.509153 1.351427,-1.977407 2.622,-4.6297375 3.511401,-6.6663483 0.161709,0.9827831 0.254115,2.1786999 0.161709,3.5403873 -0.161709,2.569445 -1.016457,4.250833 -1.016457,4.262674 -0.15016,0.284178 -0.184811,0.62756 -0.08086,0.93542 0.103956,0.3197 0.334969,0.568357 0.623736,0.698605 0.08086,0.03552 0.392723,0.177612 0.831647,0.272337 -0.831647,1.148554 -2.183075,2.569446 -3.430547,3.670636 z"
   id="path14"
   inkscape:connector-curvature="0" />
</svg>